{
	"asset":{
		"generator":"Khronos glTF Blender I/O v4.1.62",
		"version":"2.0"
	},
	"extensionsUsed":[
		"KHR_lights_punctual"
	],
	"extensionsRequired":[
		"KHR_lights_punctual"
	],
	"extensions":{
		"KHR_lights_punctual":{
			"lights":[
				{
					"color":[
						1,
						1,
						1
					],
					"intensity":54351.41306588226,
					"type":"point",
					"name":"Light"
				}
			]
		}
	},
	"scene":0,
	"scenes":[
		{
			"name":"Scene",
			"nodes":[
				0,
				1,
				2
			]
		}
	],
	"nodes":[
		{
			"extensions":{
				"KHR_lights_punctual":{
					"light":0
				}
			},
			"name":"Light",
			"rotation":[
				0.16907574236392975,
				0.27217137813568115,
				0.7558803558349609,
				0.570947527885437
			],
			"translation":[
				4.076245307922363,
				1.0054539442062378,
				5.903861999511719
			]
		},
		{
			"camera":0,
			"name":"Camera",
			"rotation":[
				0.483536034822464,
				0.20870360732078552,
				0.33687159419059753,
				0.7804827094078064
			],
			"translation":[
				7.358891487121582,
				-6.925790786743164,
				4.958309173583984
			]
		},
		{
			"mesh":0,
			"name":"dragon"
		}
	],
	"cameras":[
		{
			"name":"Camera",
			"perspective":{
				"aspectRatio":1.3333333333333333,
				"yfov":0.5274237051253257,
				"zfar":100,
				"znear":0.10000000149011612
			},
			"type":"perspective"
		}
	],
	"materials":[
		{
			"doubleSided":true,
			"name":"Suzanne",
			"pbrMetallicRoughness":{
				"baseColorFactor":[
					0.800000011920929,
					0.800000011920929,
					0.800000011920929,
					1
				],
				"metallicFactor":0,
				"roughnessFactor":0.5
			}
		}
	],
	"meshes":[
		{
			"name":"dragon",
			"primitives":[
				{
					"attributes":{
						"POSITION":0,
						"NORMAL":1,
						"TEXCOORD_0":2,
						"TANGENT":3
					},
					"indices":4,
					"material":0
				}
			]
		}
	],
	"accessors":[
		{
			"bufferView":0,
			"componentType":5126,
			"count":421604,
			"max":[
				2.078836441040039,
				1.8140573501586914,
				2.4335689544677734
			],
			"min":[
				-2.13206148147583,
				-2.9770383834838867,
				-1.4276823997497559
			],
			"type":"VEC3"
		},
		{
			"bufferView":1,
			"componentType":5126,
			"count":421604,
			"type":"VEC3"
		},
		{
			"bufferView":2,
			"componentType":5126,
			"count":421604,
			"type":"VEC2"
		},
		{
			"bufferView":3,
			"componentType":5126,
			"count":421604,
			"type":"VEC4"
		},
		{
			"bufferView":4,
			"componentType":5125,
			"count":2495436,
			"type":"SCALAR"
		}
	],
	"bufferViews":[
		{
			"buffer":0,
			"byteLength":5059248,
			"byteOffset":0,
			"target":34962
		},
		{
			"buffer":0,
			"byteLength":5059248,
			"byteOffset":5059248,
			"target":34962
		},
		{
			"buffer":0,
			"byteLength":3372832,
			"byteOffset":10118496,
			"target":34962
		},
		{
			"buffer":0,
			"byteLength":6745664,
			"byteOffset":13491328,
			"target":34962
		},
		{
			"buffer":0,
			"byteLength":9981744,
			"byteOffset":20236992,
			"target":34963
		}
	],
	"buffers":[
		{
			"byteLength":30218736,
			"uri":"dragon.bin"
		}
	]
}
